# xmcd
#
# Track frame offsets: 
#        150
#        53505
#        82638
#        112030
#        137850
#        168676
#        189205
#        205638
#        268055
#        298698
#
# Disc length: 4650 seconds
#
# Revision: 1
# Processed by: cddbd v1.5.2PL0 Copyright (c) Steve Scherf et al.
# Submitted via: ExactAudioCopy v0.95b4
#
DISCID=8812280a
DTITLE=Sviatoslav Richter - Beethoven - Schubert - Schumann 02
DYEAR=1992
DGENRE=Classical
TTITLE0=Schubert - Sonate für Piano in A major - Allegro
TTITLE1=Schubert - Sonate für Piano in A major - Andante
TTITLE2=Schubert - Sonate für Piano in A major - Allegro
TTITLE3=Schubert - Fantasie in C major - Allegro con fuoco
TTITLE4=Schubert - Fantasie in C major - Adagio
TTITLE5=Schubert - Fantasie in C major - Presto
TTITLE6=Schubert - Fantasie in C major - Allegro
TTITLE7=Schumann - Fantasie in C major - phantastisch
TTITLE8=Schumann - Fantasie in C major - mässig
TTITLE9=Schumann - Fantasie in C major - langsam getragen
EXTD=
EXTT0=
EXTT1=
EXTT2=
EXTT3=
EXTT4=
EXTT5=
EXTT6=
EXTT7=
EXTT8=
EXTT9=
PLAYORDER=
